D:\school\WTK\thesis\model\3dpredictsim\Results\batch_windlass\Pog_s1_tmt_aCst_d00_k1000_WL30_ig24_act_TTC_GRF.mot
nRows=22
nColumns=19

name D:\school\WTK\thesis\model\3dpredictsim\Results\batch_windlass\Pog_s1_tmt_aCst_d00_k1000_WL30_ig24_act_TTC_GRF.mot
datacolumns 19
datarows 22
range 0.6076065206 0.8628012593
endheader
time 	ground_force_vx	ground_force_vy	ground_force_vz	ground_force_px	ground_force_py	ground_force_pz	1_ground_force_vx	1_ground_force_vy	1_ground_force_vz	1_ground_force_px	1_ground_force_py	1_ground_force_pz	ground_torque_x	ground_torque_y	ground_torque_z	1_ground_torque_x	1_ground_torque_y	1_ground_torque_z
        0.6076065206	       68.0812956395	      313.8191268616	        5.4058246941	        0.3891620277	        0.0000000000	        0.0291644240	      -62.7304695342	       52.8585537293	      -16.6081412257	        0.9234900866	        0.0000000000	       -0.0607732376	        0.0000000000	        0.0000000000	        0.0000000000	        0.0000000000	        0.0000000000	        0.0000000000	
        0.6197586510	       40.0428003624	      223.6788393237	       15.5518165994	        0.4005984058	        0.0000000000	        0.0234701049	     -129.5761529713	      142.4943380532	      -51.4115868816	        0.9338075100	        0.0000000000	       -0.0598369824	        0.0000000000	        0.0000000000	        0.0000000000	        0.0000000000	        0.0000000000	        0.0000000000	
        0.6319107814	       31.3157433861	      186.0706702708	       14.9202958183	        0.4014231200	        0.0000000000	        0.0228526220	      -86.4727943115	      398.4259160088	       -8.3933594528	        0.9503855849	        0.0000000000	       -0.0604056283	        0.0000000000	        0.0000000000	        0.0000000000	        0.0000000000	        0.0000000000	        0.0000000000	
        0.6440629118	       26.7130836901	      133.5419112888	       16.6313916724	        0.4018105725	        0.0000000000	        0.0231246863	     -109.2284997929	      712.0531638909	       17.9621608015	        0.9609416773	        0.0000000000	       -0.0617824040	        0.0000000000	        0.0000000000	        0.0000000000	        0.0000000000	        0.0000000000	        0.0000000000	
        0.6562150423	       13.9346553718	       71.4982231166	       14.2307421335	        0.4019286681	        0.0000000000	        0.0234173940	     -145.6224878231	      904.5026100947	       28.2185430162	        0.9697376346	        0.0000000000	       -0.0619765906	        0.0000000000	        0.0000000000	        0.0000000000	        0.0000000000	        0.0000000000	        0.0000000000	
        0.6683671727	       -2.8727353489	       11.8320009032	        2.4062670958	        0.3990642499	        0.0000000000	        0.0227829319	     -175.7896710192	      995.1282639112	       28.0199478646	        0.9811773643	        0.0000000000	       -0.0607758959	        0.0000000000	        0.0000000000	        0.0000000000	        0.0000000000	        0.0000000000	        0.0000000000	
        0.6805193031	        0.0232905308	       -0.0210954479	        0.0007316861	        0.0000000000	        0.0000000000	        0.0000000000	     -170.1589360505	      976.3169418210	       28.1872437579	        0.9892843779	        0.0000000000	       -0.0595599955	        0.0000000000	        0.0000000000	        0.0000000000	        0.0000000000	        0.0000000000	        0.0000000000	
        0.6926714335	        0.2856709268	       -0.1979864586	        0.0306335797	        0.0000000000	        0.0000000000	        0.0000000000	     -142.5609247069	      886.1521984124	       26.2423710860	        0.9936174683	        0.0000000000	       -0.0587795076	        0.0000000000	        0.0000000000	        0.0000000000	        0.0000000000	        0.0000000000	        0.0000000000	
        0.7048235639	       -1.0517469940	        0.6449771789	       -0.1155687343	        0.0000000000	        0.0000000000	        0.0000000000	     -121.1480036983	      798.5201196958	       22.3058112381	        0.9969103033	        0.0000000000	       -0.0583701047	        0.0000000000	        0.0000000000	        0.0000000000	        0.0000000000	        0.0000000000	        0.0000000000	
        0.7169756943	       -0.7881701962	        0.4450305779	       -0.0788839140	        0.0000000000	        0.0000000000	        0.0000000000	     -103.8223215970	      740.2177502054	       20.0440147845	        1.0000031214	        0.0000000000	       -0.0581138712	        0.0000000000	        0.0000000000	        0.0000000000	        0.0000000000	        0.0000000000	        0.0000000000	
        0.7291278247	       -0.4415414171	        0.2372381770	       -0.0386923363	        0.0000000000	        0.0000000000	        0.0000000000	      -88.9286971390	      696.6716780958	       19.7878403082	        1.0030187313	        0.0000000000	       -0.0579143110	        0.0000000000	        0.0000000000	        0.0000000000	        0.0000000000	        0.0000000000	        0.0000000000	
        0.7412799551	       -0.2689102426	        0.1400985184	       -0.0210338639	        0.0000000000	        0.0000000000	        0.0000000000	      -76.1684502417	      661.7170316608	       20.2808373804	        1.0061986166	        0.0000000000	       -0.0577440135	        0.0000000000	        0.0000000000	        0.0000000000	        0.0000000000	        0.0000000000	        0.0000000000	
        0.7534320856	       -0.1429057455	        0.0728410915	       -0.0097026054	        0.0000000000	        0.0000000000	        0.0000000000	      -65.1287391314	      635.5541053559	       20.3407921837	        1.0094555251	        0.0000000000	       -0.0576017580	        0.0000000000	        0.0000000000	        0.0000000000	        0.0000000000	        0.0000000000	        0.0000000000	
        0.7655842160	       -0.0823845948	        0.0405974619	       -0.0053312627	        0.0000000000	        0.0000000000	        0.0000000000	      -55.0641966689	      616.5302161047	       20.8315687190	        1.0133949096	        0.0000000000	       -0.0573867346	        0.0000000000	        0.0000000000	        0.0000000000	        0.0000000000	        0.0000000000	        0.0000000000	
        0.7777363464	       -0.0583600607	        0.0276903715	       -0.0036853013	        0.0000000000	        0.0000000000	        0.0000000000	      -47.2176129862	      603.1479786258	       20.9364311412	        1.0181869445	        0.0000000000	       -0.0570375633	        0.0000000000	        0.0000000000	        0.0000000000	        0.0000000000	        0.0000000000	        0.0000000000	
        0.7898884768	       -0.0514664020	        0.0235122854	       -0.0032446337	        0.0000000000	        0.0000000000	        0.0000000000	      -42.1582047618	      594.6072150430	       21.2618678982	        1.0234738929	        0.0000000000	       -0.0565575340	        0.0000000000	        0.0000000000	        0.0000000000	        0.0000000000	        0.0000000000	        0.0000000000	
        0.8020406072	       -0.0552780547	        0.0244100570	       -0.0034534015	        0.0000000000	        0.0000000000	        0.0000000000	      -37.6371016968	      588.8211885113	       21.2659245489	        1.0289530230	        0.0000000000	       -0.0559909619	        0.0000000000	        0.0000000000	        0.0000000000	        0.0000000000	        0.0000000000	        0.0000000000	
        0.8141927376	       -0.0713849958	        0.0306375547	       -0.0043064480	        0.0000000000	        0.0000000000	        0.0000000000	      -33.7580291859	      584.2592763023	       20.8837804960	        1.0344426866	        0.0000000000	       -0.0553666135	        0.0000000000	        0.0000000000	        0.0000000000	        0.0000000000	        0.0000000000	        0.0000000000	
        0.8263448680	       -0.1070997150	        0.0448968847	       -0.0061045321	        0.0000000000	        0.0000000000	        0.0000000000	      -30.4675581196	      580.1534898921	       20.5108770607	        1.0397159073	        0.0000000000	       -0.0547274132	        0.0000000000	        0.0000000000	        0.0000000000	        0.0000000000	        0.0000000000	        0.0000000000	
        0.8384969984	       -0.1765244017	        0.0725714227	       -0.0093938873	        0.0000000000	        0.0000000000	        0.0000000000	      -27.1191179566	      576.7351709153	       20.3753722489	        1.0448621569	        0.0000000000	       -0.0540739132	        0.0000000000	        0.0000000000	        0.0000000000	        0.0000000000	        0.0000000000	        0.0000000000	
        0.8506491289	       -0.3002671264	        0.1213903174	       -0.0148406248	        0.0000000000	        0.0000000000	        0.0000000000	      -23.8160349517	      573.0804183830	       20.1107759505	        1.0498043413	        0.0000000000	       -0.0534253603	        0.0000000000	        0.0000000000	        0.0000000000	        0.0000000000	        0.0000000000	        0.0000000000	
        0.8628012593	       -0.4933925584	        0.1966242491	       -0.0226866799	        0.0000000000	        0.0000000000	        0.0000000000	      -20.5504540767	      569.3136810318	       20.2471512509	        1.0545487110	        0.0000000000	       -0.0527841479	        0.0000000000	        0.0000000000	        0.0000000000	        0.0000000000	        0.0000000000	        0.0000000000	
